<svg width="43" height="56" viewBox="0 0 43 56" fill="none" xmlns="http://www.w3.org/2000/svg">
<g clip-path="url(#clip0_85_62)">
<path d="M16.8049 0.444256V0.390625C16.8049 0.390625 16.832 0.411252 16.8049 0.444256Z" fill="white"/>
<path d="M42.9047 18.5859L42.8518 37.02V37.513C42.8047 40.1719 42.1173 42.7816 40.8462 45.1268C37.4958 51.3934 30.272 55.7904 21.8304 55.9262C14.9645 56.0411 8.80799 53.3172 4.82439 48.9891C2.04191 46.0466 0.388722 42.238 0.150386 38.2211L0.0656738 19.363C0.0656738 19.363 3.3864 16.3905 3.86502 15.1853C4.20811 14.3247 5.159 14.9513 5.93624 14.3727C6.87231 13.675 5.89388 12.7664 6.87231 11.3689C7.52671 10.4519 8.29336 10.6483 8.7974 10.0676C9.47933 9.30932 9.69112 7.99126 10.3709 7.32283C10.5531 7.14527 10.9682 6.67319 11.1715 6.48729C11.3748 6.30138 11.828 6.99488 12.0186 6.79852C12.2812 6.51026 12.4697 5.63921 12.7196 5.35513C14.202 3.66943 14.8797 2.26363 15.6845 1.29858C16.0067 0.934479 16.3099 0.554517 16.5931 0.160156C16.9282 0.694103 17.3147 1.19496 17.7473 1.65577C19.6723 3.87413 23.2006 7.68211 23.2006 7.68211L26.7183 4.8162L28.5883 6.44969C28.7281 6.56714 28.8809 6.66874 29.0437 6.75257L30.5304 7.515C30.8626 7.6831 31.1583 7.91373 31.4008 8.19388L32.8832 9.92553C33.5228 10.6735 34.2508 11.3432 35.0519 11.9204L36.9579 13.2719C37.5476 13.6962 38.1008 14.1678 38.6119 14.6818L42.9047 18.5859Z" fill="white"/>
<path d="M14.3036 22.0859H2.68746C2.57945 22.0859 2.55615 22.1089 2.55615 22.2154V37.3596C2.55615 37.4599 2.55615 37.4975 2.67899 37.4975H14.3269C14.4307 37.4975 14.454 37.4975 14.454 37.3784V22.2196C14.4349 22.0985 14.4032 22.0859 14.3036 22.0859ZM12.8021 37.3847H10.1337C9.49833 37.3659 8.88205 37.3492 8.25518 37.3533H4.24616C4.18898 37.3533 4.16145 37.3533 4.14239 37.3157C4.13184 37.2912 4.1254 37.2651 4.12333 37.2385C4.10429 37.0218 4.09792 36.8042 4.10427 36.5867C4.10427 36.5094 4.10427 36.476 4.16145 36.4656H5.38554C5.597 36.4493 5.80943 36.4493 6.02089 36.4656C6.04087 36.4718 6.06232 36.4718 6.0823 36.4656C6.10984 36.4656 6.11407 36.4196 6.11619 36.382C6.11619 36.2567 6.09289 36.1335 6.09289 36.0019V32.948C6.09289 32.0811 6.13525 31.2163 6.09289 30.3453C6.06324 29.3238 6.13313 28.3107 6.09289 27.2746V26.0213H6.07383L6.00183 26.0548C5.78766 26.1605 5.59353 26.3019 5.4279 26.4725C5.09377 26.86 4.78602 27.269 4.50665 27.6966L4.45371 27.7488C4.38119 27.5026 4.36527 27.2436 4.40712 26.9906C4.46548 26.6397 4.56131 26.2959 4.69302 25.9649C4.78197 25.7101 4.91963 25.4782 5.02128 25.2359C5.01924 25.2193 5.01924 25.2024 5.02128 25.1858V25.1398C5.0035 25.1325 4.98442 25.1288 4.96516 25.1288C4.9459 25.1288 4.92682 25.1325 4.90904 25.1398C4.73278 25.1486 4.55608 25.1395 4.3817 25.1127C4.25278 25.1088 4.12377 25.1165 3.99626 25.1357L3.84166 25.1545L3.70824 25.1816L3.54517 25.2192C3.3884 25.261 3.2354 25.3155 3.08772 25.3821L2.70228 25.5534C2.78183 25.2295 2.91722 24.9214 3.10255 24.6427C3.33324 24.3112 3.66931 24.065 4.05768 23.9429C4.12087 23.9241 4.18525 23.9095 4.2504 23.8991C4.42768 23.8608 4.61014 23.8517 4.79044 23.8719H5.59733C5.51261 23.7466 5.42367 23.6254 5.32836 23.4917C5.03187 23.1513 4.76715 22.7857 4.44312 22.4661C4.41559 22.4369 4.35417 22.4097 4.3817 22.3638C4.38716 22.354 4.39474 22.3456 4.40389 22.3391C4.41305 22.3326 4.42355 22.3282 4.43465 22.3262H4.49607C4.80077 22.2821 5.11164 22.307 5.40516 22.3989C5.69869 22.4908 5.96717 22.6474 6.19031 22.8567C6.27714 22.934 6.34068 23.0823 6.44445 23.0781C6.54399 23.0781 6.6054 22.9528 6.68588 22.8839C6.94051 22.6652 7.23832 22.5009 7.56054 22.4014C7.6611 22.3717 7.76374 22.3494 7.86762 22.3345H7.94598C8.10408 22.323 8.26301 22.3379 8.41613 22.3784C8.49237 22.3993 8.5072 22.4243 8.44578 22.4849C8.38436 22.5455 8.31448 22.6102 8.25306 22.675L7.97139 22.9946L7.20263 23.8594C7.19034 23.8801 7.17972 23.9018 7.17086 23.9241H7.83373C8.17614 23.9122 8.51878 23.9403 8.85452 24.0077C9.08141 24.0682 9.28489 24.194 9.43903 24.3691C9.77592 24.688 10.0101 25.0978 10.1125 25.5472V25.614L9.47715 25.3404C8.99565 25.1502 8.47105 25.0918 7.95868 25.1712C7.84009 25.19 7.81255 25.2004 7.8295 25.261L7.86762 25.3487C8.12409 25.8277 8.31427 26.3385 8.43307 26.8673C8.43307 26.9467 8.45637 27.024 8.4606 27.1075C8.47264 27.2939 8.46341 27.481 8.43307 27.6653C8.43005 27.732 8.40474 27.7959 8.36107 27.847C7.89515 27.1974 7.55842 26.4391 6.73459 26.0924V26.6939C6.73459 27.0282 6.70918 27.3624 6.73459 27.6924V32.2252C6.73459 32.6785 6.71129 33.1297 6.73459 33.5788C6.73247 33.6052 6.73247 33.6318 6.73459 33.6582C6.76212 34.1428 6.73459 34.5647 6.73459 34.9971V36.3925C6.73459 36.4865 6.75789 36.5178 6.8553 36.5178C7.34664 36.5178 7.84856 36.5596 8.33777 36.5178C8.99641 36.4823 9.65505 36.5178 10.3179 36.5178C10.4259 36.5178 10.4641 36.4948 10.4641 36.3799V31.4962C10.4641 31.3751 10.4259 31.3751 10.337 31.4252C9.97059 31.6333 9.6553 31.9186 9.41362 32.2607C9.22646 32.4871 9.06258 32.7313 8.92441 32.9897C8.8927 33.0401 8.85656 33.0877 8.8164 33.1318C8.76156 32.9464 8.73166 32.7546 8.72745 32.5615C8.728 32.3786 8.75003 32.1963 8.7931 32.0184C8.9228 31.5418 9.11053 31.0824 9.3522 30.6502C9.37126 30.6064 9.38609 30.575 9.39456 30.552C9.40303 30.5291 9.39456 30.4915 9.25478 30.4831C9.15332 30.4899 9.05145 30.4785 8.95405 30.4497C8.50707 30.4167 8.06129 30.5274 7.68337 30.7651L7.42923 30.8863C7.60713 30.2596 7.77655 29.6455 8.37589 29.3029C8.65358 29.1813 8.95961 29.1365 9.26114 29.1734H9.95154C9.90242 29.0736 9.83972 28.9808 9.76517 28.8977C9.54042 28.579 9.29791 28.2729 9.03877 27.9807C8.97311 27.918 8.89899 27.8637 8.82698 27.8031L8.77192 27.753C8.75286 27.753 8.75286 27.7342 8.77192 27.707C8.80172 27.6811 8.84019 27.667 8.87993 27.6673C9.12313 27.6109 9.37591 27.6074 9.62061 27.6572C9.86531 27.707 10.0961 27.8088 10.2967 27.9556C10.4595 28.0599 10.6058 28.1873 10.7309 28.3337C10.7902 28.3964 10.8283 28.3984 10.894 28.3337C11.2476 28.0179 11.6745 27.7926 12.1371 27.6778C12.3664 27.6047 12.6131 27.6047 12.8424 27.6778C12.9377 27.7112 12.9038 27.7467 12.8678 27.776L12.8254 27.8094C12.5564 28.0726 12.3023 28.3525 12.0566 28.6449L11.5526 29.2256H12.4866C12.7164 29.215 12.9463 29.2469 13.1643 29.3196C13.3354 29.3782 13.4922 29.4715 13.6246 29.5935C13.757 29.7154 13.8621 29.8633 13.933 30.0277C14.0546 30.3131 14.1516 30.6079 14.2232 30.9092H14.1872L14.0834 30.8863C13.9516 30.8241 13.8236 30.7543 13.7001 30.6774C13.4471 30.5213 13.1506 30.4481 12.8529 30.4685H12.7682C12.6793 30.4685 12.5903 30.4915 12.495 30.4957C12.445 30.4915 12.3947 30.4915 12.3447 30.4957C12.26 30.5186 12.2832 30.5688 12.368 30.7275C12.6411 31.2176 12.8212 31.7528 12.8995 32.3067C12.925 32.5148 12.925 32.7252 12.8995 32.9333C12.8917 33.0034 12.863 33.0695 12.8169 33.1234C12.3934 32.455 11.991 31.7573 11.2053 31.3688C11.1926 31.5559 11.1926 31.7436 11.2053 31.9307C11.218 32.1331 11.218 32.3361 11.2053 32.5385C11.2053 33.2989 11.1672 34.0759 11.2053 34.8363V36.357C11.2053 36.4322 11.2053 36.4781 11.2476 36.4969H11.3366C11.7983 36.4551 12.26 36.4969 12.7216 36.4969C12.8593 36.4969 12.8995 36.5533 12.8953 36.6724V37.2719C12.8974 37.2815 12.8974 37.2915 12.8953 37.3011C12.8937 37.3242 12.8831 37.3458 12.8657 37.3614C12.8483 37.3769 12.8256 37.3853 12.8021 37.3847Z" fill="#FEFEFE"/>
<path d="M13.1792 29.2378C12.9627 29.1683 12.7353 29.1379 12.5079 29.148H11.5421L12.0589 28.5548C12.313 28.2707 12.5672 27.9887 12.8277 27.7192C12.8637 27.6837 12.9484 27.6378 12.8277 27.5981C12.6015 27.5213 12.3571 27.514 12.1267 27.5772C11.6659 27.7113 11.2432 27.9494 10.892 28.2728C10.8263 28.3375 10.7882 28.3292 10.7289 28.2728C10.6082 28.1255 10.4653 27.9973 10.3053 27.8926C10.1045 27.7462 9.87371 27.6446 9.62908 27.5948C9.38444 27.545 9.13176 27.5483 8.88853 27.6043C8.85041 27.6043 8.79958 27.6043 8.78476 27.6503C8.76993 27.6962 8.81441 27.715 8.84194 27.7422C8.86947 27.7694 8.98171 27.855 9.05372 27.9239C9.31462 28.2125 9.55721 28.5166 9.78013 28.8347C9.85359 28.9189 9.91553 29.0123 9.96438 29.1125H9.25915C8.95761 29.0745 8.65128 29.1193 8.3739 29.242C7.77245 29.5825 7.60302 30.1882 7.42724 30.8253L7.69197 30.7C8.06908 30.4605 8.5155 30.3496 8.96266 30.3846C9.06431 30.3846 9.17444 30.4076 9.26338 30.4159C9.43281 30.4159 9.43704 30.4159 9.3608 30.5809C9.11913 31.0131 8.9314 31.4725 8.8017 31.9491C8.70878 32.3164 8.71682 32.7014 8.825 33.0646C8.86502 33.0196 8.90115 32.9714 8.93301 32.9205C9.0727 32.663 9.23648 32.4189 9.42222 32.1915C9.6639 31.8493 9.97919 31.564 10.3456 31.3559C10.4388 31.3058 10.4769 31.3058 10.4727 31.429V32.3084C10.4727 33.0124 10.4451 33.71 10.4727 34.4161C10.5002 35.0427 10.4727 35.6694 10.4727 36.3148C10.4727 36.4297 10.4388 36.4527 10.3265 36.4527C9.66365 36.4527 9.00501 36.4067 8.35061 36.4527C7.85504 36.4819 7.35735 36.4527 6.86814 36.4527C6.77072 36.4527 6.74531 36.4214 6.74743 36.3274V35.2224C6.74743 34.6793 6.76649 34.1383 6.74743 33.5931C6.72837 33.0479 6.74743 32.4108 6.74743 31.8155V30.5956C6.74743 29.6055 6.78766 28.6132 6.74743 27.6273V26.0273C7.57125 26.374 7.90375 27.1323 8.37602 27.7819C8.41795 27.728 8.44364 27.6636 8.45014 27.596C8.48827 27.3299 8.48827 27.0599 8.45014 26.7939C8.32763 26.2655 8.13614 25.755 7.88046 25.2753C7.8148 25.1311 7.8148 25.1207 7.97364 25.0977C8.48568 25.0188 9.00984 25.0787 9.48999 25.2711L10.1253 25.5447V25.4737C10.0222 25.0246 9.78806 24.6151 9.45187 24.2956C9.2976 24.1211 9.09409 23.9961 8.86735 23.9363C8.53124 23.8716 8.18885 23.8443 7.84657 23.8548H7.19428C7.20691 23.8382 7.22034 23.8222 7.23452 23.8068L8.25107 22.5786C8.30825 22.5138 8.37814 22.4511 8.44379 22.3885C8.50944 22.3258 8.49038 22.3028 8.41202 22.284C8.24042 22.2378 8.06157 22.2236 7.88469 22.2423C7.4395 22.3114 7.02321 22.5033 6.68389 22.7958C6.59918 22.8689 6.51447 22.9901 6.42975 22.9942C6.34504 22.9984 6.26457 22.8522 6.17562 22.7728C5.95274 22.5631 5.68429 22.4063 5.39069 22.3143C5.09709 22.2224 4.78609 22.1977 4.48137 22.2423C4.43901 22.2423 4.38183 22.2423 4.36489 22.2861C4.34795 22.33 4.40089 22.3592 4.42631 22.3906C4.75033 22.7081 5.01506 23.0736 5.31155 23.4141C5.41154 23.5383 5.50214 23.6695 5.58263 23.8068H4.77363C4.45023 23.7727 4.12348 23.8253 3.82789 23.9591C3.53229 24.093 3.27882 24.303 3.09421 24.5671C2.90339 24.8442 2.76425 25.1526 2.68335 25.4779L3.06879 25.3108C3.47432 25.129 3.91526 25.0371 4.36066 25.0413C4.53657 25.067 4.71456 25.0761 4.89223 25.0685C4.93246 25.0685 4.97694 25.0455 5.00023 25.0685C5.02353 25.0914 5.00023 25.1332 4.9727 25.1625C4.87316 25.409 4.73551 25.6408 4.64656 25.8915C4.51974 26.2217 4.42818 26.564 4.37336 26.9129C4.32899 27.1778 4.34563 27.4491 4.42207 27.7067L4.48137 27.6503C4.75733 27.2219 5.06302 26.8129 5.39626 26.4262C5.58508 26.2304 5.81196 26.0741 6.06337 25.9667C6.09302 26.4012 6.06337 26.8022 6.08243 27.22C6.11632 28.2393 6.04855 29.2566 6.08243 30.2927C6.10573 31.1616 6.05914 32.0243 6.08243 32.8933V33.779C6.08243 34.5017 6.05914 35.2224 6.06337 35.9472C6.06337 36.0663 6.09302 36.1916 6.08667 36.3274C6.08667 36.388 6.08667 36.4339 5.98925 36.4256C5.77747 36.4256 5.56569 36.4256 5.34332 36.4256H4.18911C4.08746 36.4256 4.05781 36.4527 4.06204 36.5551C4.06204 36.7639 4.06204 36.9875 4.0811 37.2089C4.0811 37.2966 4.10652 37.3217 4.20394 37.3217H4.9727C5.5551 37.3217 6.12903 37.3217 6.71354 37.3446H8.21083C8.84618 37.3446 9.46669 37.3446 10.0893 37.376H11.1609C11.684 37.376 12.2198 37.376 12.7006 37.401C12.8001 37.401 12.8277 37.376 12.8234 37.2799V36.6804C12.8234 36.5634 12.7938 36.5028 12.6498 36.5049C12.1923 36.5049 11.7264 36.4757 11.2647 36.5049C11.1419 36.5049 11.1249 36.4715 11.1207 36.3608V34.8422C11.1016 34.0839 11.1207 33.3048 11.144 32.5445C11.1588 32.3407 11.1588 32.1362 11.144 31.9324C11.1334 31.7404 11.1334 31.5479 11.144 31.3559C11.9149 31.734 12.3003 32.4484 12.762 33.1252C12.8064 33.0689 12.8342 33.0017 12.8425 32.9309C12.87 32.7229 12.87 32.5122 12.8425 32.3042C12.7696 31.748 12.5914 31.2102 12.3173 30.7188C12.1987 30.4828 12.2071 30.4828 12.4634 30.464C12.5544 30.4678 12.6455 30.4601 12.7345 30.441C13.0602 30.3927 13.3927 30.46 13.6727 30.6311C13.7976 30.7063 13.9268 30.7773 14.0581 30.84L14.1894 30.8859C14.1161 30.5803 14.0191 30.2807 13.8993 29.9898C13.8391 29.8218 13.744 29.6681 13.6199 29.5386C13.4959 29.4091 13.3458 29.3067 13.1792 29.2378Z" fill="#2967C4"/>
<path d="M40.5264 22.1484H28.7175C28.6095 22.1484 28.5798 22.1484 28.5798 22.2738V37.5725C28.5798 37.6874 28.6095 37.7104 28.7175 37.7104H40.5137C40.6302 37.7104 40.6598 37.7104 40.6598 37.5725V22.2884C40.6598 22.1631 40.6344 22.1484 40.5264 22.1484ZM30.1491 37.3845V37.3427C30.1467 37.1224 30.1559 36.9021 30.1767 36.6827C30.1767 36.5803 30.2529 36.6096 30.308 36.6096H31.7078C31.7543 36.6155 31.8014 36.6035 31.8391 36.5761C31.8624 36.5532 31.8667 36.5114 31.8624 36.4508C31.8434 36.2347 31.8434 36.0173 31.8624 35.8012C31.9006 35.3145 31.8624 34.8215 31.8624 34.339C31.8857 33.9588 31.8624 33.5786 31.8624 33.1985C31.8857 32.6867 31.8624 32.177 31.8624 31.6799C31.8667 31.6426 31.8731 31.6057 31.8815 31.5692C31.8856 31.5463 31.892 31.5239 31.9006 31.5023C31.5419 31.6326 31.2313 31.8662 31.009 32.1728C30.7221 32.4903 30.4641 32.8321 30.2381 33.1943C30.2379 33.2022 30.2361 33.2099 30.2329 33.2171C30.2296 33.2243 30.2249 33.2307 30.219 33.2361C30.1929 33.2116 30.1723 33.1821 30.1584 33.1494C30.1446 33.1167 30.1378 33.0814 30.1385 33.046C30.1046 32.5273 30.1916 32.0078 30.3927 31.5274C30.5198 31.2663 30.6341 30.9968 30.7781 30.7378C30.8078 30.6814 30.8205 30.6438 30.8035 30.625C30.7866 30.6062 30.7548 30.5895 30.6892 30.5895C30.5476 30.5931 30.4059 30.5854 30.2656 30.5665C29.9541 30.5508 29.644 30.6179 29.3677 30.7608L28.9144 30.9885L28.8297 31.0302C28.9016 30.5433 29.105 30.0845 29.4185 29.7017C29.5095 29.6004 29.62 29.518 29.7437 29.4591C29.8673 29.4003 30.0015 29.3663 30.1385 29.3592C30.524 29.3362 30.9073 29.3362 31.2928 29.3362C31.3405 29.3299 31.389 29.3299 31.4368 29.3362C31.4622 29.2798 31.4368 29.2422 31.3965 29.2046C31.0132 28.7868 30.6892 28.2959 30.2656 27.9053C30.2381 27.8782 30.1873 27.8552 30.2 27.8092C30.2127 27.7633 30.2698 27.8092 30.308 27.7862C30.6175 27.7172 30.9411 27.7427 31.2356 27.8594L31.3902 27.9241C31.4168 27.9322 31.4424 27.9434 31.4664 27.9575C31.6909 28.07 31.896 28.2166 32.0742 28.392C32.1949 28.509 32.2373 28.5549 32.2754 28.5382C32.3051 28.5382 32.3411 28.4756 32.4215 28.392C32.6437 28.1546 32.9222 27.9754 33.232 27.8704C33.5417 27.7654 33.8731 27.7379 34.1963 27.7904C34.228 27.7904 34.2767 27.7904 34.3 27.8218V27.8406C34.3 27.8594 34.2619 27.9053 34.2344 27.9346C33.8804 28.2912 33.5528 28.6724 33.2538 29.0751C33.1988 29.1461 33.1374 29.2067 33.0654 29.284H33.6266C33.8535 29.2731 34.081 29.2885 34.3043 29.3299C34.4154 29.346 34.5233 29.3791 34.6241 29.4281C34.9297 29.5764 35.1656 29.8353 35.2827 30.1508C35.3632 30.3785 35.4712 30.5937 35.5326 30.8297C35.5386 30.895 35.5543 30.959 35.5792 31.0198C35.4288 30.9362 35.27 30.8569 35.1154 30.7817L34.874 30.6751L34.6347 30.5749C34.2884 30.5373 33.939 30.5373 33.5927 30.5749C33.9993 31.3895 34.3615 32.2083 34.1581 33.1462C34.1603 33.1657 34.1603 33.1853 34.1581 33.2047C34.0421 33.0524 33.9353 32.8933 33.8384 32.7285C33.7054 32.4987 33.5478 32.2837 33.3682 32.0872C33.1961 31.8529 32.9805 31.6531 32.7329 31.4981C32.6164 31.4376 32.5931 31.4605 32.5931 31.5796V33.4993C32.5931 33.9588 32.6206 34.4225 32.5931 34.8779C32.5656 35.3333 32.5931 35.7782 32.5931 36.2315V36.292C32.5719 36.4738 32.5931 36.5448 32.6566 36.5761C32.7256 36.5941 32.7972 36.6004 32.8684 36.5949C33.1458 36.5949 33.5588 36.5532 33.904 36.5761C34.3975 36.6033 34.8867 36.5761 35.3865 36.5761H36.1552C36.2484 36.5761 36.2823 36.5573 36.2865 36.4466V33.4157C36.3141 33.0627 36.2865 32.7138 36.2865 32.3713C36.3141 31.8219 36.2865 31.2663 36.3098 30.7169C36.3331 30.2824 36.2865 29.8542 36.3098 29.426C36.3331 28.9978 36.3098 28.4797 36.3098 28.0118V26.7021C36.3098 26.5538 36.3289 26.3992 36.3331 26.2384V26.1737C35.9524 26.336 35.6248 26.5992 35.3865 26.934C35.1387 27.2264 34.946 27.5606 34.7236 27.8761C34.7235 27.8828 34.7218 27.8894 34.7184 27.8952C34.7151 27.901 34.7103 27.906 34.7045 27.9095C34.6768 27.8862 34.6547 27.857 34.6401 27.824C34.6254 27.7911 34.6185 27.7553 34.6198 27.7194C34.5569 27.2444 34.6257 26.7615 34.8189 26.322C34.9502 26.0107 35.0773 25.7078 35.2043 25.4112C35.2361 25.3465 35.2425 25.3089 35.2043 25.2859C35.171 25.2627 35.1308 25.251 35.09 25.2525C34.6694 25.2046 34.2437 25.2251 33.8299 25.313C33.5896 25.3799 33.3574 25.4723 33.1374 25.5888L33.0145 25.6431L32.9362 25.6807C32.9411 25.5616 32.9714 25.4449 33.0251 25.3381C33.2029 24.8638 33.538 24.4626 33.976 24.1997C34.195 24.0956 34.434 24.0387 34.677 24.0326C34.9502 24.0054 35.2276 24.0138 35.5008 24.0054C35.6279 24.0054 35.755 24.0702 35.8863 24.0054C35.7253 23.8237 35.5665 23.6608 35.4288 23.479C35.2012 23.1895 34.9543 22.9153 34.6897 22.6581C34.5626 22.5286 34.5775 22.4868 34.7554 22.4492C34.9898 22.4062 35.2309 22.4147 35.4616 22.4743C35.6922 22.5339 35.9067 22.643 36.0896 22.7939C36.2527 22.9276 36.4369 23.0446 36.5915 23.1741C36.5997 23.1781 36.6088 23.1802 36.618 23.1802C36.6272 23.1802 36.6362 23.1781 36.6445 23.1741C36.6613 23.1721 36.6784 23.1721 36.6953 23.1741C36.7186 23.1741 36.8266 23.0362 36.9071 22.9652C37.1102 22.7831 37.3478 22.6424 37.6062 22.551C37.8646 22.4596 38.1387 22.4193 38.4128 22.4325C38.4345 22.4284 38.4568 22.4284 38.4785 22.4325C38.5491 22.4411 38.6166 22.4661 38.6754 22.5056V22.5307C38.7093 22.5996 38.5928 22.6101 38.5505 22.6602C38.1693 23.0657 37.8155 23.4956 37.4916 23.9469C37.5117 23.9664 37.5377 23.9789 37.5657 23.9824H37.6462C37.9999 23.9704 38.354 23.9865 38.7051 24.0305C38.8158 24.043 38.925 24.0661 39.0312 24.0994C39.4196 24.2213 39.7504 24.4771 39.9631 24.8201C40.1441 25.0866 40.2688 25.3864 40.3294 25.7016C40.2341 25.6723 40.1367 25.6326 40.0414 25.5992C39.9688 25.5734 39.898 25.5427 39.8296 25.5073H39.8106L39.7555 25.4822C39.2473 25.2889 38.6955 25.2348 38.1587 25.3256C38.0549 25.3256 38.0549 25.3799 38.093 25.4509C38.1312 25.5219 38.2307 25.687 38.2879 25.8081C38.518 26.2564 38.6616 26.743 38.7114 27.2431C38.7426 27.4821 38.7187 27.7248 38.6416 27.9534C38.6394 27.9637 38.6394 27.9743 38.6416 27.9847C38.5443 27.9012 38.4657 27.7988 38.4107 27.6839C38.2748 27.4323 38.1122 27.1956 37.9257 26.9779C37.7451 26.7244 37.519 26.5057 37.2586 26.3324L37.1718 26.2718L37.1294 26.253C37.0087 26.1925 37.0087 26.2029 37.0087 26.3616C37.0087 26.652 37.0362 26.9444 37.0087 27.2369C36.9748 27.7173 37.0087 28.1998 36.9854 28.6782V31.3937C36.9854 31.8261 37.013 32.2627 36.9854 32.695C36.9579 33.1274 36.9854 33.5995 36.9664 34.0486C36.9473 34.4977 36.9939 34.9259 36.9664 35.3542C36.9388 35.7824 36.9664 36.0957 36.9473 36.4675C36.9473 36.6158 36.9473 36.6492 37.0405 36.6534H37.1443C37.4687 36.6346 37.794 36.6346 38.1185 36.6534H38.8343C38.8851 36.6534 38.919 36.6534 38.9338 36.6868C38.9443 36.7003 38.9518 36.7159 38.9558 36.7324C38.9598 36.749 38.9603 36.7662 38.9571 36.7829V37.4576C38.9571 37.5182 38.9571 37.56 38.8809 37.5495C38.4573 37.4931 38.0443 37.5495 37.6335 37.5307C37.1485 37.4994 36.6678 37.56 36.1891 37.5307C35.8355 37.5036 35.4818 37.5307 35.1302 37.5307H33.4953C33.1119 37.5307 32.7265 37.5537 32.3411 37.5307C31.8264 37.4994 31.3139 37.5307 30.8014 37.5307C30.6357 37.5203 30.4695 37.5203 30.3037 37.5307C30.1767 37.4702 30.1576 37.443 30.1576 37.3741L30.1491 37.3845Z" fill="#FEFEFE"/>
<path d="M38.7897 24.0153C38.4388 23.9699 38.0845 23.9545 37.7308 23.9693C37.6821 23.9693 37.6228 23.9902 37.5783 23.9442C37.9015 23.491 38.2553 23.0597 38.6372 22.6533C38.6796 22.6074 38.7876 22.5698 38.7622 22.528C38.7028 22.4748 38.6294 22.4393 38.5504 22.4256C38.5287 22.4215 38.5064 22.4215 38.4848 22.4256C38.2107 22.4121 37.9367 22.4519 37.6783 22.543C37.4199 22.634 37.1823 22.7744 36.979 22.9562C36.907 23.021 36.8435 23.0899 36.7672 23.1651C36.691 23.2403 36.71 23.2236 36.6634 23.1651C36.5088 23.0251 36.3246 22.9123 36.1615 22.787C35.9782 22.6361 35.7634 22.5268 35.5325 22.4669C35.3015 22.407 35.0601 22.3979 34.8252 22.4403C34.6494 22.4716 34.6346 22.5176 34.7616 22.6492C35.0235 22.9088 35.2703 23.1829 35.5008 23.4701C35.6384 23.6518 35.7994 23.8168 35.9582 23.9985C35.8312 24.0257 35.6998 24.0257 35.5728 23.9985C35.2993 23.994 35.0257 24.0031 34.7532 24.0257C34.5101 24.0318 34.2712 24.0887 34.0522 24.1928C33.6116 24.4539 33.2746 24.8555 33.097 25.3312C33.0465 25.4399 33.0164 25.5566 33.0081 25.6759L33.2199 25.5819C33.4395 25.4652 33.6718 25.3734 33.9124 25.3083C34.3297 25.2191 34.759 25.1987 35.1831 25.2477C35.3123 25.2477 35.3398 25.2853 35.2826 25.4023C35.1375 25.6995 35.0089 26.0042 34.8972 26.3151C34.7059 26.7551 34.6372 27.2375 34.6981 27.7125C34.6963 27.7485 34.703 27.7844 34.7177 27.8174C34.7324 27.8504 34.7547 27.8796 34.7828 27.9026C34.994 27.5663 35.2223 27.2407 35.4669 26.9271C35.7043 26.5924 36.0313 26.3291 36.4114 26.1668C36.4153 26.3439 36.4076 26.5212 36.3881 26.6973C36.3606 27.1318 36.3881 27.5642 36.3881 28.005V30.7205C36.3606 31.2678 36.3881 31.8213 36.3648 32.3728C36.3458 32.7216 36.3648 33.0704 36.3648 33.4172C36.3373 33.8663 36.3648 34.3175 36.3648 34.7666V36.4627C36.3648 36.5734 36.3267 36.5964 36.2335 36.5922C35.9751 36.5734 35.7168 36.5922 35.4626 36.5922H33.9802C33.6371 36.5922 33.2919 36.5922 32.9446 36.611C32.5972 36.6298 32.6375 36.611 32.6671 36.3081V33.4903C32.6671 32.8469 32.7031 32.2015 32.6671 31.5685C32.6671 31.4537 32.6904 31.4307 32.8027 31.4892C33.068 31.6379 33.3012 31.8366 33.4888 32.074C33.67 32.2688 33.8271 32.4841 33.9569 32.7153C34.0546 32.8777 34.1614 33.0346 34.2767 33.1853C34.5117 32.2203 34.139 31.3889 33.726 30.5575C34.0716 30.5199 34.4203 30.5199 34.7659 30.5575C35.091 30.6852 35.4067 30.8352 35.7104 31.0066C35.6914 30.9189 35.6787 30.8625 35.6638 30.7978C35.6024 30.5638 35.4944 30.3466 35.416 30.1189C35.3399 29.9085 35.2087 29.7218 35.0358 29.5776C34.8628 29.4334 34.6542 29.3369 34.4313 29.298C34.2077 29.2587 33.9805 29.2433 33.7536 29.252H33.1881C33.2601 29.1685 33.3215 29.1079 33.3766 29.0431C33.675 28.64 34.0027 28.2588 34.3571 27.9026C34.3804 27.8734 34.4397 27.8546 34.4228 27.8086C34.4059 27.7627 34.3466 27.7627 34.3084 27.7585C33.9854 27.7061 33.6543 27.7334 33.3446 27.8381C33.0349 27.9427 32.7563 28.1213 32.5337 28.358C32.3558 28.5481 32.4109 28.5669 32.1822 28.358C31.9417 28.1231 31.6528 27.9422 31.335 27.8274C31.04 27.7128 30.7171 27.6873 30.4074 27.7543C30.3693 27.7543 30.3142 27.7292 30.2994 27.7773C30.2846 27.8253 30.3375 27.8462 30.3651 27.8734C30.7886 28.2535 31.1 28.7549 31.496 29.1726C31.532 29.2102 31.5616 29.2478 31.5362 29.3042C31.4883 29.3001 31.4401 29.3001 31.3922 29.3042C31.0068 29.3042 30.6234 29.3042 30.238 29.3314C30.101 29.3366 29.9665 29.3693 29.8427 29.4275C29.7189 29.4857 29.6084 29.5681 29.5179 29.6698C29.2026 30.053 28.999 30.5137 28.9292 31.0025C29.124 30.9001 29.3146 30.8166 29.4671 30.7288C29.7431 30.585 30.0534 30.5179 30.3651 30.5346C30.507 30.5346 30.6531 30.5617 30.7886 30.5575C30.9242 30.5534 30.939 30.5993 30.8755 30.71C30.742 30.9649 30.6256 31.2343 30.4921 31.4954C30.2931 31.9764 30.2062 32.4954 30.238 33.014C30.2385 33.0854 30.2674 33.1536 30.3185 33.2041C30.5395 32.8275 30.797 32.4728 31.0872 32.1451C31.3115 31.8362 31.6242 31.6005 31.9852 31.4683C31.9622 31.5256 31.9493 31.5863 31.9471 31.6479V33.1665C31.9238 33.5467 31.9471 33.9269 31.9471 34.3049C31.909 34.7958 31.9471 35.2888 31.9238 35.7797C31.909 35.996 31.909 36.213 31.9238 36.4293C31.9238 36.5505 31.9238 36.5922 31.7734 36.5839C31.3064 36.5588 30.8384 36.5588 30.3714 36.5839C30.3227 36.5839 30.2444 36.5546 30.2444 36.657C30.249 36.8913 30.2398 37.1256 30.2168 37.3588C30.2168 37.434 30.2168 37.457 30.31 37.457H30.8077C31.3266 37.457 31.8391 37.434 32.3473 37.457C32.7328 37.4842 33.1161 37.457 33.5015 37.457C34.0458 37.4758 34.588 37.457 35.1344 37.457H36.1933C36.6698 37.4883 37.1548 37.4278 37.6376 37.457C38.0485 37.4925 38.4678 37.4194 38.885 37.4758C38.957 37.4758 38.9655 37.4466 38.9613 37.3818V36.705C38.9613 36.611 38.938 36.5776 38.8384 36.5776H38.1268C37.801 36.5588 37.4743 36.5588 37.1484 36.5776C36.9599 36.5776 36.9472 36.5776 36.9515 36.3938C36.9515 36.0157 36.9515 35.6355 36.9705 35.2783C37.0086 34.848 36.9705 34.4115 36.9705 33.9707C36.9705 33.53 36.9515 33.0746 36.9896 32.6192C37.0277 32.1639 36.9896 31.7503 36.9896 31.3179C36.9896 30.7142 36.9896 30.1105 37.0086 29.5089V28.6107C37.0362 28.1282 37.0086 27.6457 37.0319 27.1673C37.051 26.8749 37.0319 26.5825 37.0319 26.29C37.0319 26.1166 37.0319 26.1166 37.195 26.2023L37.2818 26.2608C37.5428 26.435 37.769 26.6552 37.9489 26.9104C38.1359 27.1264 38.2985 27.3617 38.4339 27.6123C38.489 27.7272 38.5676 27.8296 38.6648 27.9131C38.7458 27.676 38.7719 27.424 38.741 27.1757C38.6962 26.6749 38.5569 26.1867 38.3302 25.7365C38.273 25.6153 38.2031 25.5004 38.1374 25.3793C38.0718 25.2581 38.0908 25.2686 38.1989 25.2581C38.7359 25.1639 39.2889 25.2167 39.7978 25.4106C40.0023 25.5127 40.2148 25.5986 40.4331 25.6675C40.3725 25.3537 40.2478 25.0552 40.0668 24.7902C39.9285 24.5731 39.7413 24.3902 39.5199 24.2558C39.2984 24.1214 39.0486 24.0391 38.7897 24.0153Z" fill="#2967C4"/>
<path d="M38.5929 14.679C38.0816 14.1645 37.5276 13.6929 36.9368 13.2691L35.0583 11.9009C34.258 11.3244 33.5306 10.6554 32.8918 9.90809L31.4093 8.17643C31.1631 7.90108 30.8645 7.6761 30.5304 7.51427L29.048 6.75601C28.8856 6.67167 28.7336 6.56936 28.5948 6.45104L26.7184 4.80921L23.2198 7.66467C23.2198 7.66467 19.6809 3.86713 17.7685 1.63833C17.3353 1.17678 16.9481 0.675241 16.6122 0.140625C16.3299 0.535721 16.0273 0.916385 15.7058 1.28114C14.8989 2.24619 14.2233 3.64989 12.7408 5.3356C12.4867 5.62177 12.2961 6.46984 12.0356 6.77899C11.8429 6.98788 11.3876 6.26722 11.1885 6.46775C10.9894 6.66828 10.568 7.13619 10.3879 7.31583C9.70601 7.98426 9.49423 9.28979 8.81229 10.0606C8.29978 10.6329 7.54161 10.4407 6.88721 11.3598C5.90878 12.7573 6.88721 13.6576 5.95113 14.3636C5.18237 14.9401 4.223 14.3135 3.87992 15.1762C3.40341 16.3689 0.0805664 19.3539 0.0805664 19.3539L0.165278 38.212C0.402735 42.2291 2.05605 46.038 4.83928 48.98C8.825 53.3102 14.9815 56.032 21.8453 55.9192C30.289 55.7813 37.5171 51.3801 40.8611 45.1199C42.1319 42.7745 42.8194 40.1648 42.8667 37.506V37.0109L42.9217 18.5852L38.5929 14.679ZM2.3318 22.0673L4.39666 19.5126C4.4304 19.4795 4.4761 19.4608 4.52373 19.4608C4.57137 19.4608 4.61706 19.4795 4.6508 19.5126L4.68468 19.5544C4.94729 20.0244 5.50428 21.073 5.53181 21.073L4.62115 18.0045C4.62718 17.9757 4.63895 17.9484 4.65579 17.9241C4.67263 17.8999 4.6942 17.8792 4.71923 17.8632C4.74427 17.8473 4.77227 17.8364 4.80161 17.8313C4.83095 17.8261 4.86103 17.8268 4.89011 17.8332C4.91966 17.8426 4.94807 17.8552 4.97482 17.8708L6.12903 18.6311C6.15895 18.6532 6.19386 18.6678 6.23075 18.6736C6.26763 18.6794 6.3054 18.6763 6.34081 18.6646L7.44631 17.2253C7.48365 17.1775 7.53857 17.1461 7.5992 17.1379C7.65984 17.1297 7.72131 17.1453 7.77033 17.1815C7.79357 17.2019 7.81419 17.225 7.83175 17.2504C8.06894 17.7016 8.44803 18.5309 8.50945 18.6061L7.60726 14.3511C7.60726 14.1422 7.92281 13.1291 8.06471 13.2816L10.263 17.0415C10.6269 17.7528 11.0373 18.4401 11.4913 19.099C11.9818 19.7754 12.6556 20.3017 13.4355 20.6176L17.0823 22.1571C16.3665 20.7367 12.1648 20.7409 11.6311 18.0128C11.4612 17.337 11.1884 16.6905 10.8221 16.0953L8.43532 12.3729C8.4007 12.3296 8.38483 12.2746 8.39117 12.2198C8.39752 12.165 8.42557 12.115 8.46921 12.0805C8.50525 12.0553 8.54789 12.0408 8.59204 12.0387L9.53659 11.9552C9.56963 11.9495 9.60357 11.9517 9.6356 11.9615C9.66763 11.9713 9.69685 11.9884 9.72083 12.0116L10.2249 12.3917C10.5291 12.6424 10.8196 12.9087 11.0953 13.1897C11.1728 13.2725 11.2436 13.3612 11.3071 13.455L11.7306 14.0565C12.0168 14.3486 12.386 14.5482 12.7895 14.6289L14.6956 15.0613C14.757 15.0613 15.2737 15.2221 15.2356 15.1762C15.0238 14.9067 13.4291 14.8566 12.5142 14.2153C12.1093 13.8881 11.7671 13.4919 11.504 13.0455L10.3159 11.6377C10.2887 11.6001 10.2759 11.5542 10.2799 11.5082L11.2118 8.97646C11.2231 8.91919 11.2561 8.86832 11.3041 8.83418C11.3521 8.80005 11.4115 8.78519 11.4701 8.79264C11.5168 8.79882 11.56 8.82013 11.593 8.85322L12.3639 9.10806C13.0521 9.31695 13.4228 10.1358 13.8463 10.6914C14.2699 11.247 14.8671 11.9907 15.117 12.304C15.1904 12.3998 15.2549 12.5018 15.3097 12.609C15.7 13.3107 16.0445 14.0363 16.3411 14.7814C16.7265 16.1412 15.9175 17.146 16.5952 18.0964C16.8896 18.4455 17.2028 18.7788 17.5334 19.0949C18.0357 19.5787 18.651 19.9331 19.3251 20.1267L21.4662 20.7534C21.5115 20.762 21.5522 20.7865 21.5806 20.8223C21.6335 20.8787 21.6229 20.8223 21.6843 20.8223H21.7352C21.7352 20.8223 18.6199 19.9116 18.101 19.0259L17.4106 18.1465C16.4406 17.006 17.3068 16.4253 17.1755 15.5563C17.1144 15.1561 17.023 14.7609 16.9023 14.3741L16.5592 13.2691C16.1926 12.0882 15.6035 10.9862 14.8226 10.0209L13.859 8.83651C13.7797 8.72052 13.7444 8.5806 13.7596 8.44146C13.7747 8.30233 13.8392 8.17294 13.9416 8.07617C14.2381 7.80044 14.6765 7.51845 14.9772 7.62498C15.5152 7.81924 16.178 8.58167 16.4597 9.0454L17.1099 10.142C17.3555 9.94987 16.9976 9.22295 16.7244 8.69238C16.5451 8.36444 16.3077 8.07084 16.0234 7.82551L13.588 5.72412C13.5734 5.69524 13.5658 5.66342 13.5658 5.63117C13.5658 5.59892 13.5734 5.5671 13.588 5.53822L16.3941 1.52136C16.4072 1.49376 16.4258 1.46899 16.4487 1.44849C16.4716 1.42798 16.4984 1.41213 16.5275 1.40184C16.5566 1.39156 16.5875 1.38704 16.6184 1.38855C16.6493 1.39006 16.6795 1.39757 16.7075 1.41065C16.7347 1.42851 16.7602 1.44879 16.7837 1.47122L20.725 6.26096L21.2756 6.88761C21.4819 7.12076 21.6047 7.41436 21.625 7.72315L21.6759 8.52945C21.7331 8.90753 23.1266 10.7039 22.7687 10.9254C22.0867 11.3431 21.1062 11.0737 20.1595 11.0277C20.1527 11.0262 20.1456 11.0261 20.1387 11.0274C20.1318 11.0287 20.1253 11.0314 20.1196 11.0354C20.1138 11.0393 20.1089 11.0443 20.1052 11.0502C20.1015 11.0561 20.0991 11.0627 20.0981 11.0695C20.0948 11.0819 20.0964 11.0952 20.1028 11.1065C20.1091 11.1177 20.1195 11.1262 20.132 11.1301L21.7521 11.6356C21.6378 12.139 20.797 12.4899 21.2205 12.8346C21.598 13.0884 22.0037 13.2987 22.4298 13.4612L23.6497 13.9458C23.8904 14.0502 24.1202 14.1776 24.3358 14.326C24.5756 14.4873 24.8022 14.6667 25.0135 14.8628L26.3372 16.2874C26.5238 16.46 26.6562 16.6819 26.7184 16.9266C26.7459 17.0791 26.8306 17.4405 26.693 17.5533C26.5553 17.6661 25.7759 17.2191 25.5366 17.2107C25.1187 17.2066 24.7008 17.2254 24.285 17.2671C23.3002 17.405 22.3599 17.9355 22.5759 18.0275C23.001 17.7287 23.497 17.5431 24.0161 17.4885C24.6054 17.4913 25.1914 17.5757 25.7569 17.7392C26.2545 17.8582 26.7298 18.0542 27.1652 18.3199C27.5274 18.7523 28.0589 19.4019 28.0695 19.4207L29.0416 20.2187C29.5749 20.6486 30.0335 21.1615 30.3991 21.7373C30.4775 21.8668 30.5622 21.9921 30.649 22.1174C30.97 22.5471 31.3719 22.9116 31.8329 23.1911L32.8452 23.5713C33.0909 23.6694 32.0743 22.9446 32.0743 22.9446C31.7223 22.7678 31.4416 22.4783 31.278 22.1237C31.2039 21.9796 31.1319 21.8208 31.0345 21.6307C30.8502 21.2506 30.3314 20.8704 29.9756 20.1873L29.0967 19.3852C28.9124 19.0071 28.7112 18.5956 28.4931 18.2134C28.1039 17.5795 27.7858 16.9057 27.5443 16.2039C27.4476 15.8192 27.262 15.4618 27.0022 15.1595L26.083 14.0983C25.0834 11.9677 22.919 11.7358 25.1237 11.3598L25.8945 11.4768C26.1929 11.526 26.4838 11.6116 26.7607 11.7317C27.377 12.0011 28.2432 12.4001 28.6435 12.985C28.4801 12.6497 28.2495 12.3506 27.9658 12.1056C27.2683 11.6375 26.5057 11.2716 25.7018 11.0194C25.2211 10.5368 26.4727 9.47988 26.676 9.12059C26.6926 9.09432 26.7191 9.0756 26.7497 9.06855C26.7802 9.06151 26.8124 9.0667 26.8391 9.08299C26.8563 9.09085 26.8704 9.10406 26.8793 9.12059L28.1055 9.95613C28.5439 10.165 29.0098 10.7165 28.9294 10.564L26.9302 8.27252C26.8306 8.06364 27.1038 7.89235 27.2881 8.03021L30.0412 9.14148C30.0793 9.17282 31.1001 8.95557 31.0069 10.0606L31.3924 11.4977C31.3924 11.4977 31.4496 12.4001 31.4538 12.4126L31.7503 13.551C31.7778 13.6471 31.8032 13.7411 31.8392 13.833C31.9769 14.2132 32.2882 15.1532 32.2628 14.9422L31.8011 12.2518C31.7736 12.022 32.2882 12.3144 32.4089 12.5254L32.6673 12.9975C32.6893 13.038 32.7236 13.0707 32.7654 13.0909C32.8072 13.1111 32.8543 13.1179 32.9003 13.1103L33.7982 12.985C33.8566 12.9739 33.9171 12.9862 33.9663 13.0191C34.0155 13.052 34.0495 13.1028 34.0608 13.1604V13.2022L34.5077 14.0524C34.77 14.5484 34.9298 15.0908 34.9778 15.6483C35.016 16.1538 35.0159 16.4065 35.0159 16.4337C35.0159 16.4608 35.0392 16.7177 35.0498 16.9768C35.0721 17.4412 35.0402 17.9066 34.9545 18.3638L34.7195 19.6463C34.8423 19.7821 35.4395 17.7058 35.4713 17.5303C35.6661 16.5548 35.5751 14.5683 35.6238 14.6936C35.6725 14.819 38.5315 15.9323 37.4917 18.2175C37.4303 18.3554 38.1694 17.687 38.6014 17.382C38.8661 17.1961 40.4863 20.5842 40.4863 20.5842C40.5066 20.6144 40.5163 20.6504 40.5138 20.6866V25.6538L40.4714 37.1154C40.4714 37.1708 40.4491 37.2239 40.4094 37.2631C40.3697 37.3022 40.3158 37.3243 40.2596 37.3243H38.989L30.2911 37.2971H26.7396L16.3411 37.2679H12.9103L4.18488 37.2407H3.01161C2.98345 37.2427 2.95517 37.2391 2.92844 37.2301C2.9017 37.2212 2.87706 37.207 2.85594 37.1886C2.83483 37.1701 2.81768 37.1476 2.8055 37.1225C2.79331 37.0974 2.78635 37.0701 2.78501 37.0423C2.73842 36.4323 2.66429 34.4563 2.59441 32.1335C2.47157 28.0581 2.3445 22.9154 2.32544 22.2031C2.31012 22.1591 2.31012 22.1113 2.32544 22.0673H2.3318Z" fill="#2967C4" stroke="#2967C4" stroke-width="0.75" stroke-miterlimit="10"/>
<path d="M16.8049 0.444256V0.390625C16.8049 0.390625 16.832 0.411252 16.8049 0.444256Z" fill="#2967C4"/>
<path d="M21.4937 26.5684L15.1296 37.445H27.8661L21.4937 26.5684Z" fill="#2967C4"/>
<path d="M21.5213 33.1055L19.719 36.1844H23.3235L21.5213 33.1055Z" stroke="white" stroke-width="3" stroke-miterlimit="17.07"/>
<path d="M21.5361 33.8203L19.8884 36.7635H23.1922L21.5361 33.8203Z" fill="#2967C4"/>
<path d="M16.2966 36.5H14.3059V37.3439H16.2966V36.5Z" fill="#2967C4"/>
<path d="M28.6941 36.541H26.7034V37.3849H28.6941V36.541Z" fill="#2967C4"/>
<path d="M20.5675 24.9721L20.0442 25.2559L21.14 27.2218L21.6633 26.938L20.5675 24.9721Z" fill="#2967C4"/>
<path d="M22.3389 24.9559L21.2432 26.9219L21.7665 27.2057L22.8623 25.2397L22.3389 24.9559Z" fill="#2967C4"/>
<path d="M31.9005 36.6285L21.7139 27.166" stroke="#2967C4" stroke-miterlimit="17.07"/>
<path d="M11.1184 36.6291L21.2394 27.127" stroke="#2967C4" stroke-miterlimit="17.07"/>
<path d="M12.3151 33.9265L12.0967 34.3418L14.0649 35.3489L14.2834 34.9336L12.3151 33.9265Z" fill="white"/>
<path d="M14.1005 31.4636L13.8821 31.8789L15.8503 32.8861L16.0688 32.4707L14.1005 31.4636Z" fill="white"/>
<path d="M16.4318 29.1823L16.2134 29.5977L18.1816 30.6048L18.4001 30.1895L16.4318 29.1823Z" fill="white"/>
<path d="M30.8738 33.9889L28.9055 34.9961L29.124 35.4114L31.0922 34.4043L30.8738 33.9889Z" fill="white"/>
<path d="M28.904 31.5593L26.9358 32.5664L27.1543 32.9817L29.1225 31.9746L28.904 31.5593Z" fill="white"/>
<path d="M26.4658 29.3464L24.4976 30.3535L24.716 30.7688L26.6843 29.7617L26.4658 29.3464Z" fill="white"/>
<path d="M24.3188 36.7539H18.6938V36.8479H24.3188V36.7539Z" fill="white"/>
<path d="M4.79901 40.4841L39.1075 40.3086C39.476 40.3086 39.0376 41.5222 38.7009 41.6517L29.4355 43.5317C29.3105 43.5797 27.5443 43.5902 27.4447 43.5108L25.7611 42.8152C25.5493 42.6398 23.3193 42.3974 23.0291 42.3974L6.20524 42.8152C6.14845 42.8191 6.09154 42.8096 6.03924 42.7874C5.98694 42.7652 5.94075 42.7311 5.90451 42.6878L4.5237 40.9645C4.48682 40.918 4.46477 40.8617 4.46031 40.8028C4.45586 40.7439 4.46921 40.685 4.49867 40.6336C4.52814 40.5822 4.5724 40.5405 4.62586 40.5139C4.67931 40.4873 4.73957 40.4769 4.79901 40.4841Z" fill="white"/>
<path d="M7.75111 45.9483L24.2425 44.649C24.5708 44.6323 24.6999 44.9791 24.4098 45.1023C23.7999 45.3634 23.7342 46.1969 23.8761 46.4663C24.0709 46.8423 33.9039 45.2945 36.5004 45.071C36.7354 45.0501 36.9112 45.2339 36.818 45.4052C36.479 45.9641 36.0627 46.4738 35.5812 46.9196C34.2703 47.7551 21.7985 48.0664 21.4385 48.0914C20.9239 48.127 13.5433 47.8826 10.068 48.223C9.74185 48.2544 9.58725 47.9202 9.85621 47.7802C9.90052 47.764 9.93843 47.7342 9.96444 47.6953C9.99044 47.6563 10.0032 47.6102 10.0008 47.5637C9.99847 47.5171 9.98112 47.4725 9.95131 47.4363C9.9215 47.4001 9.88077 47.3742 9.83503 47.3624L7.61345 46.3995C7.34873 46.2846 7.44615 45.9629 7.75111 45.9483Z" fill="white"/>
<path d="M12.5586 51.171L20.2674 50.371C21.0939 50.2854 21.9258 50.2623 22.7558 50.3021L31.3012 50.7199C31.621 50.7345 31.6824 51.0833 31.3796 51.1669L27.2435 52.2949C23.6918 53.2504 19.9553 53.3221 16.3685 52.5037L12.5141 51.6222C12.2092 51.5596 12.243 51.2128 12.5586 51.171Z" fill="white"/>
</g>
<defs>
<clipPath id="clip0_85_62">
<rect width="43" height="56" fill="white"/>
</clipPath>
</defs>
</svg>
